<svg version="1.1" xmlns="http://www.w3.org/2000/svg" xmlns:xlink="http://www.w3.org/1999/xlink" width="800px" height="800px" viewBox="0,0,256,256"><g fill="#e3a27a" fill-rule="nonzero" stroke="none" stroke-width="1" stroke-linecap="butt" stroke-linejoin="miter" stroke-miterlimit="10" stroke-dasharray="" stroke-dashoffset="0" font-family="none" font-weight="none" font-size="none" text-anchor="none" style="mix-blend-mode: normal"><g transform="translate(0,-0.00086) scale(0.86195,0.86195)"><g><path d="M159.206,181.749c11.905,10.96 23.675,18.734 24.17,19.06c1.744,1.148 3.745,1.721 5.746,1.721c2.001,0 4.003,-0.574 5.746,-1.721c0.496,-0.326 12.263,-8.102 24.165,-19.063c17.386,-16.01 26.201,-30.722 26.201,-43.729c0,-19.016 -14.931,-34.486 -33.281,-34.486c-8.83,0 -16.867,3.58 -22.831,9.411c-5.966,-5.831 -14.004,-9.411 -22.834,-9.411c-18.355,0 -33.289,15.471 -33.289,34.486c0,13.009 8.817,27.723 26.207,43.732zM166.288,124.447c6.824,0 12.376,6.088 12.376,13.57c0,5.775 4.683,10.458 10.458,10.458c5.775,0 10.457,-4.683 10.457,-10.458c0,-7.482 5.551,-13.57 12.374,-13.57c6.818,0 12.365,6.088 12.365,13.57c0,11.264 -19.023,29.545 -35.197,41.324c-16.179,-11.777 -35.206,-30.059 -35.206,-41.324c0,-7.482 5.55,-13.57 12.373,-13.57z"></path><path d="M269.287,0h-224.319c-5.774,0 -10.457,4.683 -10.457,10.458v49.936h-6.798c-5.775,0 -10.458,4.683 -10.458,10.458c0,5.775 4.683,10.457 10.458,10.457h6.798v30.851h-6.798c-5.775,0 -10.458,4.683 -10.458,10.458c0,5.775 4.683,10.457 10.458,10.457h6.798v30.851h-6.798c-5.775,0 -10.458,4.683 -10.458,10.458c0,5.775 4.683,10.458 10.458,10.458h6.798v30.851h-6.798c-5.775,0 -10.458,4.682 -10.458,10.457c0,5.775 4.683,10.458 10.458,10.458h6.798v49.936c0,5.775 4.683,10.458 10.457,10.458h224.319c5.775,0 10.458,-4.683 10.458,-10.458v-276.086c0,-5.775 -4.682,-10.458 -10.458,-10.458zM258.829,276.084h-203.403v-39.478h6.798c5.775,0 10.458,-4.683 10.458,-10.458c0,-5.775 -4.683,-10.457 -10.458,-10.457h-6.798v-30.851h6.798c5.775,0 10.458,-4.683 10.458,-10.458c0,-5.775 -4.683,-10.458 -10.458,-10.458h-6.798v-30.851h6.798c5.775,0 10.458,-4.682 10.458,-10.457c0,-5.775 -4.683,-10.458 -10.458,-10.458h-6.798v-30.849h6.798c5.775,0 10.458,-4.682 10.458,-10.457c0,-5.775 -4.683,-10.458 -10.458,-10.458h-6.798v-39.478h203.403z"></path><path d="M96.734,258.843c5.775,0 10.458,-4.683 10.458,-10.458v-199.772c0,-5.775 -4.683,-10.458 -10.458,-10.458c-5.775,0 -10.458,4.683 -10.458,10.458v199.771c0,5.776 4.683,10.459 10.458,10.459z"></path></g></g></g></svg>